<svg width="306" height="276" viewBox="0 0 306 276" fill="none" xmlns="http://www.w3.org/2000/svg">
<circle cx="2" cy="2" r="2" fill="#CFEDFB"/>
<circle cx="2" cy="32" r="2" fill="#CFEDFB"/>
<circle cx="2" cy="62" r="2" fill="#CFEDFB"/>
<circle cx="2" cy="92" r="2" fill="#CFEDFB"/>
<circle cx="2" cy="122" r="2" fill="#CFEDFB"/>
<circle cx="2" cy="152" r="2" fill="#CFEDFB"/>
<circle cx="2" cy="182" r="2" fill="#CFEDFB"/>
<circle cx="2" cy="212" r="2" fill="#CFEDFB"/>
<circle cx="2" cy="242" r="2" fill="#CFEDFB"/>
<circle cx="2" cy="272" r="2" fill="#CFEDFB"/>
<circle cx="32" cy="2" r="2" fill="#CFEDFB"/>
<circle cx="32" cy="32" r="2" fill="#CFEDFB"/>
<circle cx="32" cy="62" r="2" fill="#CFEDFB"/>
<circle cx="32" cy="92" r="2" fill="#CFEDFB"/>
<circle cx="32" cy="122" r="2" fill="#CFEDFB"/>
<circle cx="32" cy="152" r="2" fill="#CFEDFB"/>
<circle cx="32" cy="182" r="2" fill="#CFEDFB"/>
<circle cx="32" cy="212" r="2" fill="#CFEDFB"/>
<circle cx="32" cy="242" r="2" fill="#CFEDFB"/>
<circle cx="32" cy="272" r="2" fill="#CFEDFB"/>
<circle cx="62" cy="2" r="2" fill="#CFEDFB"/>
<circle cx="62" cy="32" r="2" fill="#CFEDFB"/>
<circle cx="62" cy="62" r="2" fill="#CFEDFB"/>
<circle cx="62" cy="92" r="2" fill="#CFEDFB"/>
<circle cx="62" cy="122" r="2" fill="#CFEDFB"/>
<circle cx="62" cy="152" r="2" fill="#CFEDFB"/>
<circle cx="62" cy="182" r="2" fill="#CFEDFB"/>
<circle cx="62" cy="212" r="2" fill="#CFEDFB"/>
<circle cx="62" cy="242" r="2" fill="#CFEDFB"/>
<circle cx="62" cy="272" r="2" fill="#CFEDFB"/>
<circle cx="92" cy="2" r="2" fill="#CFEDFB"/>
<circle cx="92" cy="32" r="2" fill="#CFEDFB"/>
<circle cx="92" cy="62" r="2" fill="#CFEDFB"/>
<circle cx="92" cy="92" r="2" fill="#CFEDFB"/>
<circle cx="92" cy="122" r="2" fill="#CFEDFB"/>
<circle cx="92" cy="152" r="2" fill="#CFEDFB"/>
<circle cx="92" cy="182" r="2" fill="#CFEDFB"/>
<circle cx="92" cy="212" r="2" fill="#CFEDFB"/>
<circle cx="92" cy="242" r="2" fill="#CFEDFB"/>
<circle cx="92" cy="272" r="2" fill="#CFEDFB"/>
<circle cx="122" cy="2" r="2" fill="#CFEDFB"/>
<circle cx="122" cy="32" r="2" fill="#CFEDFB"/>
<circle cx="122" cy="62" r="2" fill="#CFEDFB"/>
<circle cx="122" cy="92" r="2" fill="#CFEDFB"/>
<circle cx="122" cy="122" r="2" fill="#CFEDFB"/>
<circle cx="122" cy="152" r="2" fill="#CFEDFB"/>
<circle cx="122" cy="182" r="2" fill="#CFEDFB"/>
<circle cx="122" cy="212" r="2" fill="#CFEDFB"/>
<circle cx="122" cy="242" r="2" fill="#CFEDFB"/>
<circle cx="122" cy="272" r="2" fill="#CFEDFB"/>
<circle cx="152" cy="2" r="2" fill="#CFEDFB"/>
<circle cx="152" cy="32" r="2" fill="#CFEDFB"/>
<circle cx="152" cy="62" r="2" fill="#CFEDFB"/>
<circle cx="152" cy="92" r="2" fill="#CFEDFB"/>
<circle cx="152" cy="122" r="2" fill="#CFEDFB"/>
<circle cx="152" cy="152" r="2" fill="#CFEDFB"/>
<circle cx="152" cy="182" r="2" fill="#CFEDFB"/>
<circle cx="152" cy="212" r="2" fill="#CFEDFB"/>
<circle cx="152" cy="242" r="2" fill="#CFEDFB"/>
<circle cx="152" cy="272" r="2" fill="#CFEDFB"/>
<circle cx="182" cy="2" r="2" fill="#CFEDFB"/>
<circle cx="182" cy="32" r="2" fill="#CFEDFB"/>
<circle cx="182" cy="62" r="2" fill="#CFEDFB"/>
<circle cx="182" cy="92" r="2" fill="#CFEDFB"/>
<circle cx="182" cy="122" r="2" fill="#CFEDFB"/>
<circle cx="182" cy="152" r="2" fill="#CFEDFB"/>
<circle cx="182" cy="182" r="2" fill="#CFEDFB"/>
<circle cx="182" cy="212" r="2" fill="#CFEDFB"/>
<circle cx="182" cy="242" r="2" fill="#CFEDFB"/>
<circle cx="182" cy="272" r="2" fill="#CFEDFB"/>
<circle cx="212" cy="2" r="2" fill="#CFEDFB"/>
<circle cx="242" cy="2" r="2" fill="#CFEDFB"/>
<circle cx="272" cy="2" r="2" fill="#CFEDFB"/>
<circle cx="302" cy="2" r="2" fill="#CFEDFB"/>
<circle cx="212" cy="32" r="2" fill="#CFEDFB"/>
<circle cx="242" cy="32" r="2" fill="#CFEDFB"/>
<circle cx="272" cy="32" r="2" fill="#CFEDFB"/>
<circle cx="302" cy="32" r="2" fill="#CFEDFB"/>
<circle cx="212" cy="62" r="2" fill="#CFEDFB"/>
<circle cx="242" cy="62" r="2" fill="#CFEDFB"/>
<circle cx="272" cy="62" r="2" fill="#CFEDFB"/>
<circle cx="302" cy="62" r="2" fill="#CFEDFB"/>
<circle cx="212" cy="92" r="2" fill="#CFEDFB"/>
<circle cx="242" cy="92" r="2" fill="#CFEDFB"/>
<circle cx="272" cy="92" r="2" fill="#CFEDFB"/>
<circle cx="302" cy="92" r="2" fill="#CFEDFB"/>
<circle cx="212" cy="122" r="2" fill="#CFEDFB"/>
<circle cx="242" cy="122" r="2" fill="#CFEDFB"/>
<circle cx="272" cy="122" r="2" fill="#CFEDFB"/>
<circle cx="302" cy="122" r="2" fill="#CFEDFB"/>
<circle cx="212" cy="152" r="2" fill="#CFEDFB"/>
<circle cx="242" cy="152" r="2" fill="#CFEDFB"/>
<circle cx="272" cy="152" r="2" fill="#CFEDFB"/>
<circle cx="302" cy="152" r="2" fill="#CFEDFB"/>
<circle cx="212" cy="182" r="2" fill="#CFEDFB"/>
<circle cx="242" cy="182" r="2" fill="#CFEDFB"/>
<circle cx="272" cy="182" r="2" fill="#CFEDFB"/>
<circle cx="302" cy="182" r="2" fill="#CFEDFB"/>
<circle cx="212" cy="212" r="2" fill="#CFEDFB"/>
<circle cx="242" cy="212" r="2" fill="#CFEDFB"/>
<circle cx="272" cy="212" r="2" fill="#CFEDFB"/>
<circle cx="302" cy="212" r="2" fill="#CFEDFB"/>
<circle cx="212" cy="242" r="2" fill="#CFEDFB"/>
<circle cx="242" cy="242" r="2" fill="#CFEDFB"/>
<circle cx="272" cy="242" r="2" fill="#CFEDFB"/>
<circle cx="302" cy="242" r="2" fill="#CFEDFB"/>
<circle cx="212" cy="272" r="2" fill="#CFEDFB"/>
<circle cx="242" cy="272" r="2" fill="#CFEDFB"/>
<circle cx="272" cy="272" r="2" fill="#CFEDFB"/>
<circle cx="302" cy="272" r="2" fill="#CFEDFB"/>
</svg>
