<svg width="142" height="138" viewBox="0 0 142 138" fill="none" xmlns="http://www.w3.org/2000/svg">
<path opacity="0.72" d="M50.7806 124.131L66.5044 108.427C68.3829 106.551 69.1516 103.844 68.392 101.279L62.7339 79.7847C62.0437 77.2886 60.033 75.2804 57.5339 74.591L36.0825 68.8705C33.4444 68.1814 30.7344 68.9491 28.8559 70.8253L13.0625 86.599C11.184 88.4751 10.4154 91.1818 11.1749 93.7471L16.9026 115.172C17.5928 117.668 19.6035 119.676 22.1026 120.365L43.6929 126.086C46.1921 126.775 48.9021 126.007 50.7806 124.131Z" fill="#3B82F6"/>
<path opacity="0.72" d="M71.2582 66.4217L86.9819 50.7175C88.8604 48.8414 89.6291 46.1347 88.8695 43.5694L83.2115 22.0752C82.5212 19.5791 80.5105 17.5709 78.0114 16.8816L56.56 11.161C53.9219 10.4719 51.2119 11.2396 49.3334 13.1158L33.5401 28.8895C31.6616 30.7657 30.8929 33.4723 31.6525 36.0376L37.3801 57.4624C38.0703 59.9584 40.081 61.9666 42.5802 62.656L64.1705 68.3763C66.6696 69.0656 69.3797 68.2979 71.2582 66.4217Z" fill="#6EE7B7"/>
<path opacity="0.72" d="M113.144 112.962L128.868 97.2573C130.747 95.3812 131.515 92.6745 130.756 90.1092L125.098 68.615C124.407 66.1189 122.397 64.1107 119.898 63.4214L98.4462 57.7008C95.8082 57.0117 93.0981 57.7794 91.2196 59.6556L75.4263 75.4293C73.5478 77.3055 72.7791 80.0121 73.5387 82.5774L79.2663 104.002C79.9566 106.498 81.9673 108.506 84.4664 109.196L106.057 114.916C108.556 115.605 111.266 114.838 113.144 112.962Z" fill="#A78BFA"/>
</svg>
