<svg width="400" height="400" viewBox="0 0 400 400" fill="none"
  xmlns="http://www.w3.org/2000/svg">
  <path d="M200 400C310.457 400 400 310.457 400 200C400 89.5431 310.457 0 200 0C89.5431 0 0 89.5431 0 200C0 310.457 89.5431 400 200 400Z" fill="url(#paint0_linear_1377_13100)"/>
  <path d="M210.281 73.3986C200.732 73.1414 189.564 96.0962 189.939 116.66C190.028 122.91 191.977 135.59 194.826 151.463C176.836 170.257 155.969 189.535 155.969 214.82C155.684 238.002 169.716 267.539 203.011 267.252C207.668 267.251 212.307 266.656 216.817 265.481C219.815 282.323 221.884 295.624 221.869 301.797C221.974 326.008 190.388 328.414 188.889 314.493C190.473 314.464 192.036 314.121 193.488 313.482C194.94 312.844 196.254 311.923 197.353 310.772C198.453 309.621 199.318 308.263 199.897 306.775C200.477 305.287 200.761 303.699 200.732 302.1C200.703 300.501 200.363 298.924 199.731 297.458C199.098 295.992 198.186 294.666 197.046 293.556C195.906 292.446 194.56 291.574 193.086 290.989C191.612 290.403 190.038 290.117 188.454 290.146C186.677 290.141 184.919 290.519 183.298 291.255C181.677 291.991 180.231 293.068 179.055 294.413C178.996 294.465 178.941 294.52 178.89 294.58C178.361 295.177 177.898 295.832 177.511 296.532C175.814 299.851 174.998 303.558 175.142 307.29C175.142 327.567 225.932 340.58 225.932 300.632C225.932 295.261 223.713 281.596 220.385 264.407C256.618 251.182 247.519 196.874 214.179 196.617C211.653 196.632 209.137 196.947 206.683 197.555C204.78 188.34 202.951 179.397 201.347 171.15C214.014 158.606 225.062 142.399 224.823 112.408C224.912 90.891 217.777 73.6407 210.281 73.3986ZM212.53 94.1897C216.847 93.7811 220.28 97.8213 220.28 106.734C220.625 122.032 210.011 135.393 197.359 148.846C196.327 143.269 195.631 137.635 195.275 131.974C195.62 108.065 205.319 94.9008 212.515 94.1897H212.53ZM198.948 173.526C200.447 181.545 202.156 189.989 203.85 198.493C181.769 206.407 171.185 237.457 202.471 251.363C183.402 234.976 192.787 215.577 206.534 212.187C209.996 229.619 213.369 246.809 216.098 261.668C211.881 263.099 207.459 263.814 203.011 263.786C190.388 263.786 165.159 255.676 165.159 224.943C165.144 199.219 182.803 188.763 198.933 173.526H198.948ZM209.667 211.642C210.236 211.605 210.807 211.605 211.376 211.642C234.342 211.642 243.006 248.458 219.621 260.23C216.697 245.462 213.16 228.529 209.652 211.642H209.667Z" fill="white" stroke="white" stroke-miterlimit="10"/>
  <defs>
    <linearGradient id="paint0_linear_1377_13100" x1="67.617" y1="341.74" x2="400.219" y2="100.512" gradientUnits="userSpaceOnUse">
      <stop stop-color="#007EA4"/>
      <stop offset="0.979722" stop-color="#00AFB9" stop-opacity="0.7"/>
    </linearGradient>
  </defs>
</svg>
